<!DOCTYPE svg PUBLIC "-//W3C//DTD SVG 1.1//EN" "http://www.w3.org/Graphics/SVG/1.1/DTD/svg11.dtd">
<!-- Uploaded to: SVG Repo, www.svgrepo.com, Transformed by: SVG Repo Mixer Tools -->
<svg fill="#25c2a0" width="64px" height="64px" viewBox="0 0 24 24" role="img" xmlns="http://www.w3.org/2000/svg">
<g id="SVGRepo_bgCarrier" stroke-width="0"/>
<g id="SVGRepo_tracerCarrier" stroke-linecap="round" stroke-linejoin="round"/>
<g id="SVGRepo_iconCarrier">
<title>RunKit icon</title>
<path d="M23.97 14.8a3 3 0 0 1-1.47 3.02l-9 5.2a3 3 0 0 1-3 0l-9-5.2A3 3 0 0 1 .03 14.8l1.32-7.2a3 3 0 0 1 .98-1.82 2.96 2.96 0 0 1 .49-.35l7.55-4.37a3.01 3.01 0 0 1 3.28.02l7.53 4.35c.1.05.19.1.28.17a3 3 0 0 1 1.19 2zM14.43 4.03L6.71 5.62c-.43.08-.51.64-.14.86l5.6 3.23c.23.13.5.07.63-.19l1.58-3.6.53-1.22c.16-.35-.11-.75-.5-.67z"/>
</g>
</svg>